<svg width="64" height="64" viewBox="0 0 64 64" fill="none" xmlns="http://www.w3.org/2000/svg">
    <path d="M9.44321 59.3461L36.657 43.6331L36.6583 1.76025L9.44455 17.4471L9.44321 59.3461Z" fill="#FBDBD0"/>
    <path d="M34.844 6.97164L11.2587 20.5896L11.2584 28.9694L34.8437 15.3515L34.844 6.97164Z" fill="#374874"/>
    <path d="M34.8435 18.4939L13.9796 30.5405L13.9795 32.6355L34.8435 20.5888L34.8435 18.4939Z" fill="#C1DBF6"/>
    <path d="M34.8434 22.6838L13.9795 34.7305L13.9794 36.8254L34.8433 24.7788L34.8434 22.6838Z" fill="#C1DBF6"/>
    <path d="M34.8434 26.8737L13.9795 38.9204L13.9794 41.0154L34.8433 28.9687L34.8434 26.8737Z" fill="#C1DBF6"/>
    <path d="M34.8432 31.0637L13.9793 43.1104L13.9792 45.2053L34.8432 33.1586L34.8432 31.0637Z" fill="#C1DBF6"/>
    <path d="M29.4003 39.4437L16.7005 46.7764C15.6986 47.355 14.8863 48.7619 14.8862 49.9189C14.8862 51.0759 15.6984 51.5449 16.7004 50.9663L29.4002 43.6336C30.4022 43.0551 31.2145 41.6481 31.2145 40.4911C31.2145 39.3341 30.4023 38.8651 29.4003 39.4437Z" fill="#374874"/>
    <path d="M12.1654 33.6829C12.6665 33.3936 13.0727 32.6901 13.0727 32.1115C13.0727 31.533 12.6666 31.2985 12.1655 31.5878C11.6645 31.8771 11.2583 32.5806 11.2583 33.1592C11.2582 33.7377 11.6644 33.9722 12.1654 33.6829Z" fill="#C1DBF6"/>
    <path d="M12.1654 37.8731C12.6665 37.5838 13.0727 36.8803 13.0727 36.3017C13.0727 35.7231 12.6666 35.4886 12.1655 35.7779C11.6645 36.0672 11.2583 36.7708 11.2583 37.3493C11.2582 37.9279 11.6644 38.1624 12.1654 37.8731Z" fill="#C1DBF6"/>
    <path d="M12.1652 42.0628C12.6663 41.7735 13.0725 41.07 13.0725 40.4914C13.0725 39.9128 12.6663 39.6783 12.1653 39.9676C11.6643 40.2569 11.2581 40.9605 11.2581 41.539C11.258 42.1176 11.6642 42.3521 12.1652 42.0628Z" fill="#C1DBF6"/>
    <path d="M12.1651 46.253C12.6661 45.9637 13.0723 45.2601 13.0723 44.6816C13.0723 44.103 12.6662 43.8685 12.1651 44.1578C11.6641 44.4471 11.2579 45.1507 11.2579 45.7292C11.2579 46.3078 11.664 46.5423 12.1651 46.253Z" fill="#C1DBF6"/>
    <path d="M12.2266 60.2753L39.4404 44.5623L39.4417 2.68945L12.228 18.3763L12.2266 60.2753Z" fill="white"/>
    <path d="M37.6274 7.90084L14.0421 21.5188L14.0418 29.8986L37.6271 16.2807L37.6274 7.90084Z" fill="#374874"/>
    <path d="M37.627 19.4228L16.7631 31.4695L16.763 33.5644L37.6269 21.5178L37.627 19.4228Z" fill="#C1DBF6"/>
    <path d="M37.6268 23.6125L16.7629 35.6592L16.7628 37.7541L37.6268 25.7075L37.6268 23.6125Z" fill="#C1DBF6"/>
    <path d="M37.6268 27.8027L16.7629 39.8494L16.7628 41.9443L37.6268 29.8977L37.6268 27.8027Z" fill="#C1DBF6"/>
    <path d="M37.6267 31.9924L16.7628 44.0391L16.7627 46.134L37.6266 34.0873L37.6267 31.9924Z" fill="#C1DBF6"/>
    <path d="M32.1837 40.3724L19.484 47.7051C18.482 48.2837 17.6697 49.6906 17.6696 50.8476C17.6696 52.0047 18.4818 52.4736 19.4838 51.8951L32.1836 44.5623C33.1856 43.9838 33.9979 42.5768 33.9979 41.4198C33.998 40.2628 33.1857 39.7939 32.1837 40.3724Z" fill="#374874"/>
    <path d="M14.9488 34.6119C15.4499 34.3226 15.8561 33.619 15.8561 33.0405C15.8561 32.4619 15.4499 32.2274 14.9489 32.5167C14.4479 32.806 14.0417 33.5095 14.0417 34.0881C14.0416 34.6667 14.4478 34.9012 14.9488 34.6119Z" fill="#C1DBF6"/>
    <path d="M14.9488 38.8021C15.4499 38.5128 15.8561 37.8092 15.8561 37.2307C15.8561 36.6521 15.4499 36.4176 14.9489 36.7069C14.4479 36.9962 14.0417 37.6997 14.0417 38.2783C14.0416 38.8569 14.4478 39.0914 14.9488 38.8021Z" fill="#C1DBF6"/>
    <path d="M14.9487 42.9918C15.4497 42.7025 15.8559 41.9989 15.8559 41.4204C15.8559 40.8418 15.4498 40.6073 14.9487 40.8966C14.4477 41.1859 14.0415 41.8894 14.0415 42.468C14.0415 43.0466 14.4476 43.281 14.9487 42.9918Z" fill="#C1DBF6"/>
    <path d="M14.9486 47.1819C15.4496 46.8926 15.8558 46.1891 15.8558 45.6105C15.8558 45.032 15.4497 44.7975 14.9486 45.0868C14.4476 45.3761 14.0414 46.0796 14.0414 46.6582C14.0414 47.2367 14.4475 47.4712 14.9486 47.1819Z" fill="#C1DBF6"/>
    <path d="M9.44321 17.4407L12.2266 18.3686V60.2708L9.44321 59.343V17.4407Z" fill="#FBDBD0"/>
    <path d="M9.45169 17.4396L36.6522 1.76318L39.4432 2.68747L12.2351 18.3674L9.45169 17.4396Z" fill="#FBDBD0"/>
    <path d="M43.4667 55.8627C49.5912 52.3265 54.5563 43.7267 54.5565 36.6546C54.5568 29.5824 49.592 26.7161 43.4675 30.2523C37.343 33.7886 32.3779 42.3884 32.3777 49.4605C32.3775 56.5326 37.3422 59.399 43.4667 55.8627Z" fill="white"/>
    <path d="M37.6697 47.0385L40.903 48.9053C41.1661 49.0571 41.2976 49.133 41.4492 49.1024C41.5826 49.0754 41.7263 48.9924 41.8597 48.8654C42.0113 48.7209 42.1428 48.4931 42.4059 48.0376L49.6245 35.5344" stroke="#C1DBF6" stroke-width="1.58423" stroke-linecap="round" stroke-linejoin="round"/>
    <path d="M41.5411 54.9208C47.6656 51.3846 52.6307 42.7848 52.6309 35.7127C52.6312 28.6405 47.6664 25.7742 41.5419 29.3104C35.4174 32.8467 30.4523 41.4465 30.4521 48.5186C30.4519 55.5907 35.4166 58.4571 41.5411 54.9208Z" fill="#FBDBD0"/>
    <path d="M31.7131 53.7226C32.6256 55.4532 35.2638 56.7318 36.8288 57.1499C33.9771 56.3881 32.8954 53.3841 32.6256 52.0314C31.6214 46.9979 33.8279 41.747 35.2475 39.1939C38.4914 33.3597 42.0392 31.086 44.0911 29.9246C48.6136 27.6543 50.6635 29.2353 51.7698 29.7708C50.3667 28.8329 49.057 28.3132 48.3609 28.0714C42.0451 26.2325 35.6244 33.8063 33.2659 38.3669C29.0316 46.553 30.491 51.8689 31.7131 53.7226Z" fill="#FBDBD0"/>
    <path d="M43.4667 55.8627C49.5912 52.3265 54.5563 43.7267 54.5565 36.6546C54.5568 29.5824 49.592 26.7161 43.4675 30.2523C37.343 33.7886 32.3779 42.3884 32.3777 49.4605C32.3775 56.5326 37.3422 59.399 43.4667 55.8627Z" fill="white"/>
    <path d="M40.1832 47.3409C40.1832 48.7286 41.217 49.2566 42.4923 48.5202L44.6365 47.2822C46.0029 46.4932 47.1106 44.6484 47.1107 43.1616C47.1107 41.6748 46.0031 41.1091 44.6367 41.8981L42.6574 43.0409C41.291 43.8298 40.1834 43.2641 40.1834 41.7774C40.1835 40.2906 41.2912 38.4457 42.6576 37.6568L44.8018 36.4187C46.0771 35.6824 47.1109 36.2104 47.1108 37.598M43.6473 35.4702L43.6472 37.0854M43.6469 47.8536L43.6468 49.4688" stroke="#374874" stroke-width="2" stroke-linecap="round" stroke-linejoin="round"/>
    <path d="M36.0571 1.63713L10.2504 16.5178C9.50715 16.9464 9.04922 17.739 9.04922 18.5969V58.6221C9.04922 59.2254 9.43564 59.7608 10.0082 59.9508L11.6745 60.5039C12.0539 60.6299 12.4691 60.5876 12.8153 60.3877L30.1797 50.3672C30.3013 51.2917 30.5837 52.4897 31.298 53.6637C32.194 55.1364 33.7261 56.5595 36.3071 57.4077C38.7459 58.2091 44.5821 57.7812 50.2428 49.9546C51.4451 48.3223 53.0736 45.2246 54.0609 41.8583C55.0439 38.5068 55.4228 34.7823 53.9876 31.9673C53.4211 30.8563 52.0755 29.3592 49.9107 28.2681C47.9037 27.2565 43.8481 26.9073 39.8336 29.9297V3.41685C39.8336 2.81641 39.4507 2.28283 38.8819 2.09057L37.2047 1.52366C36.8236 1.39486 36.4056 1.43619 36.0571 1.63713Z" stroke="#374874" stroke-width="0.8"/>
    </svg>